<svg width="300" height="200" viewBox="0 0 300 200" xmlns="http://www.w3.org/2000/svg">
  <defs>
    <linearGradient id="cottagecoreGradient" x1="0%" y1="0%" x2="100%" y2="100%">
      <stop offset="0%" style="stop-color:#B4C5B0"/>
      <stop offset="100%" style="stop-color:#F5E6D3"/>
    </linearGradient>
  </defs>
  <rect width="300" height="200" fill="url(#cottagecoreGradient)"/>
  <path d="M100 120 L150 80 L200 120 L180 120 L180 160 L120 160 L120 120 Z" fill="#8B7355" opacity="0.8"/>
  <circle cx="150" cy="50" r="20" fill="#F5E6D3" opacity="0.6"/>
  <path d="M130 140 L130 160 L145 160 L145 140 Z" fill="#D4B08C"/>
  <path d="M50 100 C50 80 70 80 70 100" stroke="#8B7355" stroke-width="2" fill="none"/>
  <path d="M80 90 C80 70 100 70 100 90" stroke="#8B7355" stroke-width="2" fill="none"/>
  <path d="M200 100 C200 80 220 80 220 100" stroke="#8B7355" stroke-width="2" fill="none"/>
  <path d="M230 90 C230 70 250 70 250 90" stroke="#8B7355" stroke-width="2" fill="none"/>
</svg> 